<?xml version="1.0" encoding="utf-8"?>
<!-- Generator: Adobe Illustrator 23.0.2, SVG Export Plug-In . SVG Version: 6.00 Build 0)  -->
<svg version="1.1" id="Layer_1" xmlns="http://www.w3.org/2000/svg" xmlns:xlink="http://www.w3.org/1999/xlink" x="0px" y="0px"
	 viewBox="0 0 72 32" style="enable-background:new 0 0 72 32;" xml:space="preserve">
<style type="text/css">
	.st0{fill:#FFFFFF;}
</style>
<path class="st0" d="M71.07,6.31l0,19.39c0,2.93-2.38,5.31-5.31,5.31c-2.93,0-5.31-2.38-5.31-5.31l0-19.39c0-1.77-1.43-3.2-3.2-3.2
	s-3.2,1.43-3.2,3.2l0,19.39c0,2.93-2.38,5.31-5.31,5.31s-5.31-2.38-5.31-5.31l0-19.39c0-1.77-1.43-3.2-3.2-3.2s-3.2,1.43-3.2,3.2
	l0,19.39c0,2.93-2.38,5.31-5.31,5.31s-5.31-2.38-5.31-5.31l0-19.39c0-1.77-1.43-3.2-3.2-3.2c-1.77,0-3.2,1.43-3.2,3.2l0,19.39
	c0,2.93-2.38,5.31-5.31,5.31s-5.31-2.38-5.31-5.31l0-19.39c0-1.77-1.43-3.2-3.2-3.2s-3.2,1.43-3.2,3.2v19.39H0.93V6.31
	C0.93,3.38,3.3,1,6.23,1s5.31,2.38,5.31,5.31l0,19.39c0,1.77,1.43,3.2,3.2,3.2s3.2-1.43,3.2-3.2l0-19.39c0-2.93,2.38-5.31,5.31-5.31
	s5.31,2.38,5.31,5.31l0,19.39c0,1.77,1.43,3.2,3.2,3.2c1.77,0,3.2-1.43,3.2-3.2l0-19.39c0-2.93,2.38-5.31,5.31-5.31
	s5.31,2.38,5.31,5.31l0,19.39c0,1.77,1.43,3.2,3.2,3.2s3.2-1.43,3.2-3.2l0-19.39c0-2.93,2.38-5.31,5.31-5.31s5.31,2.38,5.31,5.31
	l0,19.39c0,1.77,1.43,3.2,3.2,3.2c1.77,0,3.2-1.43,3.2-3.2l0-19.39H71.07z"/>
</svg>
