<?xml version="1.0" encoding="utf-8"?>
<!-- Generator: Adobe Illustrator 22.1.0, SVG Export Plug-In . SVG Version: 6.00 Build 0)  -->
<svg version="1.1" id="Layer_1" xmlns="http://www.w3.org/2000/svg" xmlns:xlink="http://www.w3.org/1999/xlink" x="0px" y="0px"
	 viewBox="0 0 125 52" style="enable-background:new 0 0 125 52;" xml:space="preserve">
<style type="text/css">
	.st0{opacity:0.9;}
	.st1{fill:#202E3B;}
</style>
<g class="st0">
	<path class="st1" d="M4.3,42.2c0,2.9,2.4,5.3,5.3,5.3s5.3-2.4,5.3-5.3l0-3.8c0-1.2-0.4-2.2-1-3.1L2.4,18.6c-1-1.4-1.6-3.1-1.6-5
		l0-3.8C0.8,4.9,4.7,1,9.6,1s8.8,3.9,8.8,8.8v5.6h-3.5V9.8c0-2.9-2.4-5.3-5.3-5.3S4.3,6.9,4.3,9.8l0,3.8c0,1.1,0.3,2.1,0.9,3
		l11.5,16.7c1,1.4,1.6,3.2,1.6,5.1l0,3.8c0,4.9-3.9,8.8-8.8,8.8s-8.8-3.9-8.8-8.8v-5.7h3.5L4.3,42.2z"/>
	<polygon class="st1" points="37.6,4.8 30.6,4.8 30.6,50.6 27.1,50.6 27.1,4.8 20,4.8 20,1.3 37.6,1.3 	"/>
	<path class="st1" d="M55.2,22.4V9.8c0-2.9-2.4-5.3-5.3-5.3s-5.3,2.4-5.3,5.3l0,12.6H55.2z M41.2,50.6l0-40.8c0-4.9,3.9-8.8,8.8-8.8
		s8.8,3.9,8.8,8.8v40.8h-3.5V26H44.7l0,24.6H41.2z"/>
	<polygon class="st1" points="79.8,4.8 72.7,4.8 72.7,50.6 69.2,50.6 69.2,4.8 62.2,4.8 62.2,1.3 79.8,1.3 	"/>
	<path class="st1" d="M100.8,1.3l0,40.8c0,4.9-3.9,8.8-8.8,8.8s-8.8-3.9-8.8-8.8V1.3l3.5,0v40.8c0,2.9,2.4,5.3,5.3,5.3
		c2.9,0,5.3-2.4,5.3-5.3l0-40.8L100.8,1.3z"/>
	<path class="st1" d="M110.2,42.2c0,2.9,2.4,5.3,5.3,5.3c2.9,0,5.3-2.4,5.3-5.3l0-3.8c0-1.2-0.4-2.2-1-3.1l-11.5-16.6
		c-1-1.4-1.6-3.1-1.6-5l0-3.8c0-4.9,3.9-8.8,8.8-8.8c4.9,0,8.8,3.9,8.8,8.8v5.6h-3.5V9.8c0-2.9-2.4-5.3-5.3-5.3
		c-2.9,0-5.3,2.4-5.3,5.3l0,3.8c0,1.1,0.3,2.1,0.9,3l11.5,16.7c1,1.4,1.6,3.2,1.6,5.1l0,3.8c0,4.9-3.9,8.8-8.8,8.8
		c-4.9,0-8.8-3.9-8.8-8.8v-5.7h3.5L110.2,42.2z"/>
</g>
</svg>
